<mxfile host="app.diagrams.net" modified="2023-04-21T10:03:34.699Z" agent="Mozilla/5.0 (Windows NT 10.0; Win64; x64) AppleWebKit/537.36 (KHTML, like Gecko) Chrome/112.0.0.0 Safari/537.36 Edg/112.0.1722.48" etag="UxNOTJsrBPwTIQ8USjBR" version="21.1.8" type="device" pages="2">
  <diagram name="Страница 1" id="7pUmKCnFYTn7iZ5GlVgY">
    <mxGraphModel dx="993" dy="581" grid="1" gridSize="10" guides="1" tooltips="1" connect="1" arrows="1" fold="1" page="1" pageScale="1" pageWidth="827" pageHeight="1169" math="0" shadow="0">
      <root>
        <mxCell id="0" />
        <mxCell id="1" parent="0" />
        <mxCell id="mDfKCfjafQq82eYf_gBG-5" value="" style="endArrow=none;dashed=1;html=1;rounded=0;startArrow=none;" parent="1" source="mDfKCfjafQq82eYf_gBG-19" edge="1">
          <mxGeometry width="50" height="50" relative="1" as="geometry">
            <mxPoint x="240" y="590" as="sourcePoint" />
            <mxPoint x="240" y="70" as="targetPoint" />
          </mxGeometry>
        </mxCell>
        <mxCell id="mDfKCfjafQq82eYf_gBG-6" value="Лексический&lt;br&gt;анализатор" style="text;html=1;align=center;verticalAlign=middle;resizable=0;points=[];autosize=1;strokeColor=none;fillColor=none;" parent="1" vertex="1">
          <mxGeometry x="195" y="30" width="90" height="40" as="geometry" />
        </mxCell>
        <mxCell id="mDfKCfjafQq82eYf_gBG-8" value="" style="endArrow=none;dashed=1;html=1;rounded=0;" parent="1" edge="1">
          <mxGeometry width="50" height="50" relative="1" as="geometry">
            <mxPoint x="400" y="630" as="sourcePoint" />
            <mxPoint x="400" y="70" as="targetPoint" />
          </mxGeometry>
        </mxCell>
        <mxCell id="mDfKCfjafQq82eYf_gBG-9" value="Синтаксический&lt;br&gt;анализатор" style="text;html=1;align=center;verticalAlign=middle;resizable=0;points=[];autosize=1;strokeColor=none;fillColor=none;" parent="1" vertex="1">
          <mxGeometry x="350" y="30" width="110" height="40" as="geometry" />
        </mxCell>
        <mxCell id="mDfKCfjafQq82eYf_gBG-10" value="" style="endArrow=none;dashed=1;html=1;rounded=0;startArrow=none;" parent="1" source="mDfKCfjafQq82eYf_gBG-45" edge="1">
          <mxGeometry width="50" height="50" relative="1" as="geometry">
            <mxPoint x="550" y="590" as="sourcePoint" />
            <mxPoint x="550" y="70" as="targetPoint" />
          </mxGeometry>
        </mxCell>
        <mxCell id="mDfKCfjafQq82eYf_gBG-11" value="Семантический&lt;br&gt;анализатор" style="text;html=1;align=center;verticalAlign=middle;resizable=0;points=[];autosize=1;strokeColor=none;fillColor=none;" parent="1" vertex="1">
          <mxGeometry x="490" y="30" width="110" height="40" as="geometry" />
        </mxCell>
        <mxCell id="mDfKCfjafQq82eYf_gBG-12" value="" style="endArrow=none;dashed=1;html=1;rounded=0;" parent="1" edge="1">
          <mxGeometry width="50" height="50" relative="1" as="geometry">
            <mxPoint x="700" y="630" as="sourcePoint" />
            <mxPoint x="700" y="70" as="targetPoint" />
          </mxGeometry>
        </mxCell>
        <mxCell id="mDfKCfjafQq82eYf_gBG-13" value="Генератор&lt;br&gt;промежуточного&amp;nbsp;&lt;br&gt;кода" style="text;html=1;align=center;verticalAlign=middle;resizable=0;points=[];autosize=1;strokeColor=none;fillColor=none;" parent="1" vertex="1">
          <mxGeometry x="635" y="10" width="120" height="60" as="geometry" />
        </mxCell>
        <mxCell id="mDfKCfjafQq82eYf_gBG-14" value="" style="endArrow=none;dashed=1;html=1;rounded=0;" parent="1" edge="1">
          <mxGeometry width="50" height="50" relative="1" as="geometry">
            <mxPoint x="850" y="630" as="sourcePoint" />
            <mxPoint x="850" y="70" as="targetPoint" />
          </mxGeometry>
        </mxCell>
        <mxCell id="mDfKCfjafQq82eYf_gBG-15" value="Генератор&lt;br&gt;исполняемого &lt;br&gt;файла" style="text;html=1;align=center;verticalAlign=middle;resizable=0;points=[];autosize=1;strokeColor=none;fillColor=none;" parent="1" vertex="1">
          <mxGeometry x="800" y="10" width="100" height="60" as="geometry" />
        </mxCell>
        <mxCell id="mDfKCfjafQq82eYf_gBG-16" value="" style="endArrow=none;dashed=1;html=1;rounded=0;startArrow=none;" parent="1" source="mDfKCfjafQq82eYf_gBG-28" edge="1">
          <mxGeometry width="50" height="50" relative="1" as="geometry">
            <mxPoint x="1000" y="590" as="sourcePoint" />
            <mxPoint x="1000" y="70" as="targetPoint" />
          </mxGeometry>
        </mxCell>
        <mxCell id="mDfKCfjafQq82eYf_gBG-18" value="Анализатор&amp;nbsp;&lt;br&gt;исключений" style="text;html=1;align=center;verticalAlign=middle;resizable=0;points=[];autosize=1;strokeColor=none;fillColor=none;" parent="1" vertex="1">
          <mxGeometry x="955" y="20" width="90" height="40" as="geometry" />
        </mxCell>
        <mxCell id="mDfKCfjafQq82eYf_gBG-20" value="" style="endArrow=none;dashed=1;html=1;rounded=0;" parent="1" target="mDfKCfjafQq82eYf_gBG-19" edge="1">
          <mxGeometry width="50" height="50" relative="1" as="geometry">
            <mxPoint x="240" y="630" as="sourcePoint" />
            <mxPoint x="240" y="70" as="targetPoint" />
          </mxGeometry>
        </mxCell>
        <mxCell id="mDfKCfjafQq82eYf_gBG-26" style="edgeStyle=orthogonalEdgeStyle;rounded=0;orthogonalLoop=1;jettySize=auto;html=1;exitX=1;exitY=0.25;exitDx=0;exitDy=0;entryX=-0.145;entryY=0.022;entryDx=0;entryDy=0;entryPerimeter=0;" parent="1" source="mDfKCfjafQq82eYf_gBG-19" target="mDfKCfjafQq82eYf_gBG-28" edge="1">
          <mxGeometry relative="1" as="geometry">
            <mxPoint x="990" y="120" as="targetPoint" />
            <Array as="points">
              <mxPoint x="245" y="120" />
            </Array>
          </mxGeometry>
        </mxCell>
        <mxCell id="mDfKCfjafQq82eYf_gBG-19" value="" style="rounded=0;whiteSpace=wrap;html=1;" parent="1" vertex="1">
          <mxGeometry x="235" y="100" width="10" height="90" as="geometry" />
        </mxCell>
        <mxCell id="mDfKCfjafQq82eYf_gBG-23" value="" style="endArrow=classic;html=1;rounded=0;" parent="1" edge="1">
          <mxGeometry width="50" height="50" relative="1" as="geometry">
            <mxPoint x="70" y="110" as="sourcePoint" />
            <mxPoint x="235" y="110" as="targetPoint" />
          </mxGeometry>
        </mxCell>
        <mxCell id="mDfKCfjafQq82eYf_gBG-25" value="исходный код" style="text;html=1;align=center;verticalAlign=middle;resizable=0;points=[];autosize=1;strokeColor=none;fillColor=none;" parent="1" vertex="1">
          <mxGeometry x="70" y="85" width="100" height="30" as="geometry" />
        </mxCell>
        <mxCell id="mDfKCfjafQq82eYf_gBG-29" value="" style="endArrow=none;dashed=1;html=1;rounded=0;" parent="1" target="mDfKCfjafQq82eYf_gBG-28" edge="1">
          <mxGeometry width="50" height="50" relative="1" as="geometry">
            <mxPoint x="1000" y="630" as="sourcePoint" />
            <mxPoint x="1000" y="70" as="targetPoint" />
          </mxGeometry>
        </mxCell>
        <mxCell id="mDfKCfjafQq82eYf_gBG-28" value="" style="rounded=0;whiteSpace=wrap;html=1;" parent="1" vertex="1">
          <mxGeometry x="995" y="110" width="10" height="450" as="geometry" />
        </mxCell>
        <mxCell id="mDfKCfjafQq82eYf_gBG-30" value="обнаружена ошибка" style="text;html=1;align=center;verticalAlign=middle;resizable=0;points=[];autosize=1;strokeColor=none;fillColor=none;" parent="1" vertex="1">
          <mxGeometry x="245" y="91" width="140" height="30" as="geometry" />
        </mxCell>
        <mxCell id="mDfKCfjafQq82eYf_gBG-31" style="edgeStyle=orthogonalEdgeStyle;rounded=0;orthogonalLoop=1;jettySize=auto;html=1;exitX=1;exitY=0.25;exitDx=0;exitDy=0;entryX=1;entryY=0.978;entryDx=0;entryDy=0;entryPerimeter=0;" parent="1" source="mDfKCfjafQq82eYf_gBG-28" target="mDfKCfjafQq82eYf_gBG-28" edge="1">
          <mxGeometry relative="1" as="geometry">
            <mxPoint x="1030" y="530" as="targetPoint" />
            <Array as="points">
              <mxPoint x="1005" y="125" />
              <mxPoint x="1040" y="125" />
              <mxPoint x="1040" y="550" />
            </Array>
          </mxGeometry>
        </mxCell>
        <mxCell id="mDfKCfjafQq82eYf_gBG-32" value="формирование &lt;br&gt;сообщения &lt;br&gt;об ошибке" style="text;html=1;align=center;verticalAlign=middle;resizable=0;points=[];autosize=1;strokeColor=none;fillColor=none;" parent="1" vertex="1">
          <mxGeometry x="1040" y="320" width="110" height="60" as="geometry" />
        </mxCell>
        <mxCell id="mDfKCfjafQq82eYf_gBG-34" value="" style="endArrow=classic;html=1;rounded=0;exitX=0.009;exitY=0.132;exitDx=0;exitDy=0;exitPerimeter=0;" parent="1" source="mDfKCfjafQq82eYf_gBG-28" edge="1">
          <mxGeometry width="50" height="50" relative="1" as="geometry">
            <mxPoint x="990" y="170" as="sourcePoint" />
            <mxPoint x="75" y="170" as="targetPoint" />
            <Array as="points">
              <mxPoint x="810" y="170" />
            </Array>
          </mxGeometry>
        </mxCell>
        <mxCell id="mDfKCfjafQq82eYf_gBG-35" value="сообщение" style="text;html=1;align=center;verticalAlign=middle;resizable=0;points=[];autosize=1;strokeColor=none;fillColor=none;" parent="1" vertex="1">
          <mxGeometry x="75" y="140" width="90" height="30" as="geometry" />
        </mxCell>
        <mxCell id="mDfKCfjafQq82eYf_gBG-41" style="edgeStyle=orthogonalEdgeStyle;rounded=0;orthogonalLoop=1;jettySize=auto;html=1;exitX=1;exitY=0.25;exitDx=0;exitDy=0;" parent="1" source="mDfKCfjafQq82eYf_gBG-36" edge="1">
          <mxGeometry relative="1" as="geometry">
            <mxPoint x="995" y="190" as="targetPoint" />
            <Array as="points">
              <mxPoint x="405" y="190" />
              <mxPoint x="995" y="190" />
            </Array>
          </mxGeometry>
        </mxCell>
        <mxCell id="mDfKCfjafQq82eYf_gBG-36" value="" style="rounded=0;whiteSpace=wrap;html=1;" parent="1" vertex="1">
          <mxGeometry x="395" y="180" width="10" height="110" as="geometry" />
        </mxCell>
        <mxCell id="mDfKCfjafQq82eYf_gBG-37" value="" style="endArrow=classic;html=1;rounded=0;exitX=0.9;exitY=0.966;exitDx=0;exitDy=0;exitPerimeter=0;" parent="1" source="mDfKCfjafQq82eYf_gBG-19" edge="1">
          <mxGeometry width="50" height="50" relative="1" as="geometry">
            <mxPoint x="250" y="187" as="sourcePoint" />
            <mxPoint x="390" y="187" as="targetPoint" />
          </mxGeometry>
        </mxCell>
        <mxCell id="mDfKCfjafQq82eYf_gBG-38" value="массив токенов" style="text;html=1;align=center;verticalAlign=middle;resizable=0;points=[];autosize=1;strokeColor=none;fillColor=none;" parent="1" vertex="1">
          <mxGeometry x="260" y="165" width="110" height="30" as="geometry" />
        </mxCell>
        <mxCell id="mDfKCfjafQq82eYf_gBG-39" style="edgeStyle=orthogonalEdgeStyle;rounded=0;orthogonalLoop=1;jettySize=auto;html=1;exitX=1;exitY=0.25;exitDx=0;exitDy=0;entryX=0.967;entryY=0.664;entryDx=0;entryDy=0;entryPerimeter=0;" parent="1" source="mDfKCfjafQq82eYf_gBG-19" target="mDfKCfjafQq82eYf_gBG-19" edge="1">
          <mxGeometry relative="1" as="geometry">
            <Array as="points">
              <mxPoint x="245" y="130" />
              <mxPoint x="265" y="130" />
              <mxPoint x="265" y="160" />
            </Array>
          </mxGeometry>
        </mxCell>
        <mxCell id="mDfKCfjafQq82eYf_gBG-40" value="создание токена" style="text;html=1;align=center;verticalAlign=middle;resizable=0;points=[];autosize=1;strokeColor=none;fillColor=none;" parent="1" vertex="1">
          <mxGeometry x="255" y="125" width="120" height="30" as="geometry" />
        </mxCell>
        <mxCell id="mDfKCfjafQq82eYf_gBG-42" value="обнаружена ошибка" style="text;html=1;align=center;verticalAlign=middle;resizable=0;points=[];autosize=1;strokeColor=none;fillColor=none;" parent="1" vertex="1">
          <mxGeometry x="405" y="167" width="140" height="30" as="geometry" />
        </mxCell>
        <mxCell id="mDfKCfjafQq82eYf_gBG-43" style="edgeStyle=orthogonalEdgeStyle;rounded=0;orthogonalLoop=1;jettySize=auto;html=1;exitX=1;exitY=0.25;exitDx=0;exitDy=0;" parent="1" source="mDfKCfjafQq82eYf_gBG-36" edge="1">
          <mxGeometry relative="1" as="geometry">
            <mxPoint x="405" y="230" as="targetPoint" />
            <Array as="points">
              <mxPoint x="425" y="200" />
              <mxPoint x="425" y="230" />
              <mxPoint x="405" y="230" />
            </Array>
          </mxGeometry>
        </mxCell>
        <mxCell id="mDfKCfjafQq82eYf_gBG-44" value="создание узла" style="text;html=1;align=center;verticalAlign=middle;resizable=0;points=[];autosize=1;strokeColor=none;fillColor=none;" parent="1" vertex="1">
          <mxGeometry x="420" y="197" width="100" height="30" as="geometry" />
        </mxCell>
        <mxCell id="mDfKCfjafQq82eYf_gBG-46" value="" style="endArrow=none;dashed=1;html=1;rounded=0;" parent="1" target="mDfKCfjafQq82eYf_gBG-45" edge="1">
          <mxGeometry width="50" height="50" relative="1" as="geometry">
            <mxPoint x="550" y="630" as="sourcePoint" />
            <mxPoint x="550" y="70" as="targetPoint" />
          </mxGeometry>
        </mxCell>
        <mxCell id="mDfKCfjafQq82eYf_gBG-45" value="" style="rounded=0;whiteSpace=wrap;html=1;" parent="1" vertex="1">
          <mxGeometry x="545" y="250" width="10" height="170" as="geometry" />
        </mxCell>
        <mxCell id="mDfKCfjafQq82eYf_gBG-47" value="" style="endArrow=classic;html=1;rounded=0;" parent="1" edge="1">
          <mxGeometry width="50" height="50" relative="1" as="geometry">
            <mxPoint x="408" y="255" as="sourcePoint" />
            <mxPoint x="545" y="255" as="targetPoint" />
          </mxGeometry>
        </mxCell>
        <mxCell id="mDfKCfjafQq82eYf_gBG-48" value="" style="endArrow=classic;html=1;rounded=0;exitX=0.009;exitY=0.132;exitDx=0;exitDy=0;exitPerimeter=0;" parent="1" edge="1">
          <mxGeometry width="50" height="50" relative="1" as="geometry">
            <mxPoint x="995" y="240" as="sourcePoint" />
            <mxPoint x="76" y="241" as="targetPoint" />
            <Array as="points">
              <mxPoint x="810" y="241" />
            </Array>
          </mxGeometry>
        </mxCell>
        <mxCell id="mDfKCfjafQq82eYf_gBG-49" value="сообщение" style="text;html=1;align=center;verticalAlign=middle;resizable=0;points=[];autosize=1;strokeColor=none;fillColor=none;" parent="1" vertex="1">
          <mxGeometry x="75" y="210" width="90" height="30" as="geometry" />
        </mxCell>
        <mxCell id="mDfKCfjafQq82eYf_gBG-50" value="дерево разбора" style="text;html=1;align=center;verticalAlign=middle;resizable=0;points=[];autosize=1;strokeColor=none;fillColor=none;" parent="1" vertex="1">
          <mxGeometry x="415" y="250" width="110" height="30" as="geometry" />
        </mxCell>
        <mxCell id="mDfKCfjafQq82eYf_gBG-51" style="edgeStyle=orthogonalEdgeStyle;rounded=0;orthogonalLoop=1;jettySize=auto;html=1;exitX=1;exitY=0.25;exitDx=0;exitDy=0;" parent="1" edge="1">
          <mxGeometry relative="1" as="geometry">
            <mxPoint x="555" y="260" as="sourcePoint" />
            <mxPoint x="555" y="290" as="targetPoint" />
            <Array as="points">
              <mxPoint x="575" y="260" />
              <mxPoint x="575" y="290" />
              <mxPoint x="555" y="290" />
            </Array>
          </mxGeometry>
        </mxCell>
        <mxCell id="mDfKCfjafQq82eYf_gBG-52" value="создание &lt;br&gt;таблицы имен" style="text;html=1;align=center;verticalAlign=middle;resizable=0;points=[];autosize=1;strokeColor=none;fillColor=none;" parent="1" vertex="1">
          <mxGeometry x="570" y="250" width="100" height="40" as="geometry" />
        </mxCell>
        <mxCell id="mDfKCfjafQq82eYf_gBG-53" style="edgeStyle=orthogonalEdgeStyle;rounded=0;orthogonalLoop=1;jettySize=auto;html=1;exitX=1;exitY=0.25;exitDx=0;exitDy=0;" parent="1" edge="1">
          <mxGeometry relative="1" as="geometry">
            <mxPoint x="555" y="310" as="sourcePoint" />
            <mxPoint x="555" y="340" as="targetPoint" />
            <Array as="points">
              <mxPoint x="575" y="310" />
              <mxPoint x="575" y="340" />
              <mxPoint x="555" y="340" />
            </Array>
          </mxGeometry>
        </mxCell>
        <mxCell id="mDfKCfjafQq82eYf_gBG-54" value="сравнение с &lt;br&gt;таблицей имен" style="text;html=1;align=center;verticalAlign=middle;resizable=0;points=[];autosize=1;strokeColor=none;fillColor=none;" parent="1" vertex="1">
          <mxGeometry x="570" y="300" width="110" height="40" as="geometry" />
        </mxCell>
        <mxCell id="mDfKCfjafQq82eYf_gBG-55" value="" style="endArrow=classic;html=1;rounded=0;exitX=1.16;exitY=0.672;exitDx=0;exitDy=0;exitPerimeter=0;entryX=0.03;entryY=0.56;entryDx=0;entryDy=0;entryPerimeter=0;" parent="1" source="mDfKCfjafQq82eYf_gBG-45" target="mDfKCfjafQq82eYf_gBG-28" edge="1">
          <mxGeometry width="50" height="50" relative="1" as="geometry">
            <mxPoint x="600" y="350" as="sourcePoint" />
            <mxPoint x="650" y="300" as="targetPoint" />
          </mxGeometry>
        </mxCell>
        <mxCell id="mDfKCfjafQq82eYf_gBG-56" value="обнаружена ошибка" style="text;html=1;align=center;verticalAlign=middle;resizable=0;points=[];autosize=1;strokeColor=none;fillColor=none;" parent="1" vertex="1">
          <mxGeometry x="555" y="340" width="140" height="30" as="geometry" />
        </mxCell>
        <mxCell id="mDfKCfjafQq82eYf_gBG-57" value="" style="endArrow=classic;html=1;rounded=0;exitX=0.009;exitY=0.132;exitDx=0;exitDy=0;exitPerimeter=0;" parent="1" edge="1">
          <mxGeometry width="50" height="50" relative="1" as="geometry">
            <mxPoint x="995" y="380" as="sourcePoint" />
            <mxPoint x="75" y="381" as="targetPoint" />
            <Array as="points">
              <mxPoint x="810" y="381" />
            </Array>
          </mxGeometry>
        </mxCell>
        <mxCell id="mDfKCfjafQq82eYf_gBG-58" value="сообщение" style="text;html=1;align=center;verticalAlign=middle;resizable=0;points=[];autosize=1;strokeColor=none;fillColor=none;" parent="1" vertex="1">
          <mxGeometry x="80" y="350" width="90" height="30" as="geometry" />
        </mxCell>
        <mxCell id="mDfKCfjafQq82eYf_gBG-59" value="" style="rounded=0;whiteSpace=wrap;html=1;" parent="1" vertex="1">
          <mxGeometry x="694" y="390" width="10" height="120" as="geometry" />
        </mxCell>
        <mxCell id="mDfKCfjafQq82eYf_gBG-61" value="" style="endArrow=classic;html=1;rounded=0;" parent="1" edge="1">
          <mxGeometry width="50" height="50" relative="1" as="geometry">
            <mxPoint x="555" y="400" as="sourcePoint" />
            <mxPoint x="691" y="400" as="targetPoint" />
          </mxGeometry>
        </mxCell>
        <mxCell id="mDfKCfjafQq82eYf_gBG-62" value="дерево разбора" style="text;html=1;align=center;verticalAlign=middle;resizable=0;points=[];autosize=1;strokeColor=none;fillColor=none;" parent="1" vertex="1">
          <mxGeometry x="560" y="390" width="110" height="30" as="geometry" />
        </mxCell>
        <mxCell id="mDfKCfjafQq82eYf_gBG-63" style="edgeStyle=orthogonalEdgeStyle;rounded=0;orthogonalLoop=1;jettySize=auto;html=1;exitX=1;exitY=0.25;exitDx=0;exitDy=0;entryX=1;entryY=0.75;entryDx=0;entryDy=0;" parent="1" source="mDfKCfjafQq82eYf_gBG-59" target="mDfKCfjafQq82eYf_gBG-59" edge="1">
          <mxGeometry relative="1" as="geometry" />
        </mxCell>
        <mxCell id="mDfKCfjafQq82eYf_gBG-64" value="ассемблерная&lt;br&gt;&amp;nbsp;команда" style="text;html=1;align=center;verticalAlign=middle;resizable=0;points=[];autosize=1;strokeColor=none;fillColor=none;" parent="1" vertex="1">
          <mxGeometry x="720" y="420" width="100" height="40" as="geometry" />
        </mxCell>
        <mxCell id="mDfKCfjafQq82eYf_gBG-65" value="" style="endArrow=classic;html=1;rounded=0;" parent="1" edge="1">
          <mxGeometry width="50" height="50" relative="1" as="geometry">
            <mxPoint x="707" y="500" as="sourcePoint" />
            <mxPoint x="843" y="500" as="targetPoint" />
          </mxGeometry>
        </mxCell>
        <mxCell id="mDfKCfjafQq82eYf_gBG-66" value="" style="rounded=0;whiteSpace=wrap;html=1;" parent="1" vertex="1">
          <mxGeometry x="845" y="493" width="10" height="120" as="geometry" />
        </mxCell>
        <mxCell id="mDfKCfjafQq82eYf_gBG-67" value="промежуточное&lt;br&gt;представление" style="text;html=1;align=center;verticalAlign=middle;resizable=0;points=[];autosize=1;strokeColor=none;fillColor=none;" parent="1" vertex="1">
          <mxGeometry x="710" y="480" width="110" height="40" as="geometry" />
        </mxCell>
        <mxCell id="mDfKCfjafQq82eYf_gBG-70" style="edgeStyle=orthogonalEdgeStyle;rounded=0;orthogonalLoop=1;jettySize=auto;html=1;exitX=1;exitY=0.25;exitDx=0;exitDy=0;" parent="1" target="mDfKCfjafQq82eYf_gBG-66" edge="1">
          <mxGeometry relative="1" as="geometry">
            <mxPoint x="855" y="500" as="sourcePoint" />
            <mxPoint x="860" y="590" as="targetPoint" />
            <Array as="points">
              <mxPoint x="875" y="500" />
              <mxPoint x="875" y="590" />
            </Array>
          </mxGeometry>
        </mxCell>
        <mxCell id="mDfKCfjafQq82eYf_gBG-71" value="код команды" style="text;html=1;align=center;verticalAlign=middle;resizable=0;points=[];autosize=1;strokeColor=none;fillColor=none;" parent="1" vertex="1">
          <mxGeometry x="880" y="530" width="90" height="30" as="geometry" />
        </mxCell>
        <mxCell id="mDfKCfjafQq82eYf_gBG-72" value="" style="endArrow=classic;html=1;rounded=0;exitX=-0.057;exitY=0.932;exitDx=0;exitDy=0;exitPerimeter=0;" parent="1" source="mDfKCfjafQq82eYf_gBG-66" edge="1">
          <mxGeometry width="50" height="50" relative="1" as="geometry">
            <mxPoint x="780" y="520" as="sourcePoint" />
            <mxPoint x="75" y="605" as="targetPoint" />
          </mxGeometry>
        </mxCell>
        <mxCell id="mDfKCfjafQq82eYf_gBG-73" value="исполняемый файл" style="text;html=1;align=center;verticalAlign=middle;resizable=0;points=[];autosize=1;strokeColor=none;fillColor=none;" parent="1" vertex="1">
          <mxGeometry x="80" y="580" width="130" height="30" as="geometry" />
        </mxCell>
        <mxCell id="mDfKCfjafQq82eYf_gBG-74" value="" style="endArrow=none;dashed=1;html=1;rounded=0;" parent="1" edge="1">
          <mxGeometry width="50" height="50" relative="1" as="geometry">
            <mxPoint x="70" y="630" as="sourcePoint" />
            <mxPoint x="70" y="70" as="targetPoint" />
          </mxGeometry>
        </mxCell>
        <mxCell id="mDfKCfjafQq82eYf_gBG-75" value="" style="rounded=0;whiteSpace=wrap;html=1;" parent="1" vertex="1">
          <mxGeometry x="65" y="95" width="10" height="515" as="geometry" />
        </mxCell>
      </root>
    </mxGraphModel>
  </diagram>
  <diagram id="q-R-X4Dvs-CneJsQgOa8" name="Страница 2">
    <mxGraphModel dx="1820" dy="581" grid="1" gridSize="10" guides="1" tooltips="1" connect="1" arrows="1" fold="1" page="1" pageScale="1" pageWidth="827" pageHeight="1169" math="0" shadow="0">
      <root>
        <mxCell id="0" />
        <mxCell id="1" parent="0" />
        <mxCell id="c8oS9XmQz75VFOZxUdVw-60" value="" style="rounded=0;whiteSpace=wrap;html=1;gradientColor=default;fillColor=none;" vertex="1" parent="1">
          <mxGeometry x="10" y="10" width="810" height="570" as="geometry" />
        </mxCell>
        <mxCell id="c8oS9XmQz75VFOZxUdVw-13" value="лексический&amp;nbsp;&lt;br&gt;анализатор" style="shape=umlActor;verticalLabelPosition=bottom;verticalAlign=top;html=1;outlineConnect=0;" vertex="1" parent="1">
          <mxGeometry x="40" y="260" width="30" height="60" as="geometry" />
        </mxCell>
        <mxCell id="c8oS9XmQz75VFOZxUdVw-14" value="синтаксический&amp;nbsp;&lt;br&gt;анализатор" style="shape=umlActor;verticalLabelPosition=bottom;verticalAlign=top;html=1;outlineConnect=0;" vertex="1" parent="1">
          <mxGeometry x="210" y="330" width="30" height="60" as="geometry" />
        </mxCell>
        <mxCell id="c8oS9XmQz75VFOZxUdVw-15" value="Формирование&lt;br&gt;токенов" style="ellipse;whiteSpace=wrap;html=1;" vertex="1" parent="1">
          <mxGeometry x="160" y="190" width="100" height="50" as="geometry" />
        </mxCell>
        <mxCell id="c8oS9XmQz75VFOZxUdVw-16" value="Ошибка" style="ellipse;whiteSpace=wrap;html=1;" vertex="1" parent="1">
          <mxGeometry x="280" y="120" width="100" height="50" as="geometry" />
        </mxCell>
        <mxCell id="c8oS9XmQz75VFOZxUdVw-19" value="" style="endArrow=classic;html=1;rounded=0;exitX=0;exitY=1;exitDx=0;exitDy=0;entryX=1;entryY=0;entryDx=0;entryDy=0;dashed=1;" edge="1" parent="1" source="c8oS9XmQz75VFOZxUdVw-16" target="c8oS9XmQz75VFOZxUdVw-15">
          <mxGeometry width="50" height="50" relative="1" as="geometry">
            <mxPoint x="390" y="220" as="sourcePoint" />
            <mxPoint x="440" y="170" as="targetPoint" />
          </mxGeometry>
        </mxCell>
        <mxCell id="c8oS9XmQz75VFOZxUdVw-20" value="&amp;lt;extend&amp;gt;" style="text;html=1;align=center;verticalAlign=middle;resizable=0;points=[];autosize=1;strokeColor=none;fillColor=none;" vertex="1" parent="1">
          <mxGeometry x="260" y="170" width="70" height="30" as="geometry" />
        </mxCell>
        <mxCell id="c8oS9XmQz75VFOZxUdVw-21" value="" style="endArrow=classic;html=1;rounded=0;" edge="1" parent="1" target="c8oS9XmQz75VFOZxUdVw-15">
          <mxGeometry width="50" height="50" relative="1" as="geometry">
            <mxPoint x="80" y="300" as="sourcePoint" />
            <mxPoint x="440" y="170" as="targetPoint" />
          </mxGeometry>
        </mxCell>
        <mxCell id="c8oS9XmQz75VFOZxUdVw-22" value="Построение дерева разбора" style="ellipse;whiteSpace=wrap;html=1;" vertex="1" parent="1">
          <mxGeometry x="320" y="265" width="100" height="50" as="geometry" />
        </mxCell>
        <mxCell id="c8oS9XmQz75VFOZxUdVw-23" value="" style="endArrow=classic;html=1;rounded=0;entryX=0;entryY=0;entryDx=0;entryDy=0;dashed=1;" edge="1" parent="1" target="c8oS9XmQz75VFOZxUdVw-22">
          <mxGeometry width="50" height="50" relative="1" as="geometry">
            <mxPoint x="260" y="220" as="sourcePoint" />
            <mxPoint x="440" y="440" as="targetPoint" />
          </mxGeometry>
        </mxCell>
        <mxCell id="c8oS9XmQz75VFOZxUdVw-24" value="" style="endArrow=classic;html=1;rounded=0;entryX=0.014;entryY=0.704;entryDx=0;entryDy=0;entryPerimeter=0;" edge="1" parent="1" target="c8oS9XmQz75VFOZxUdVw-22">
          <mxGeometry width="50" height="50" relative="1" as="geometry">
            <mxPoint x="250" y="340" as="sourcePoint" />
            <mxPoint x="310" y="310" as="targetPoint" />
          </mxGeometry>
        </mxCell>
        <mxCell id="c8oS9XmQz75VFOZxUdVw-25" value="&amp;lt;inlude&amp;gt;" style="text;html=1;align=center;verticalAlign=middle;resizable=0;points=[];autosize=1;strokeColor=none;fillColor=none;" vertex="1" parent="1">
          <mxGeometry x="280" y="218" width="70" height="30" as="geometry" />
        </mxCell>
        <mxCell id="c8oS9XmQz75VFOZxUdVw-27" value="" style="endArrow=classic;html=1;rounded=0;exitX=0.75;exitY=1.044;exitDx=0;exitDy=0;exitPerimeter=0;entryX=0.5;entryY=0;entryDx=0;entryDy=0;dashed=1;" edge="1" parent="1" source="c8oS9XmQz75VFOZxUdVw-16" target="c8oS9XmQz75VFOZxUdVw-22">
          <mxGeometry width="50" height="50" relative="1" as="geometry">
            <mxPoint x="390" y="340" as="sourcePoint" />
            <mxPoint x="440" y="290" as="targetPoint" />
          </mxGeometry>
        </mxCell>
        <mxCell id="c8oS9XmQz75VFOZxUdVw-28" value="семантический&amp;nbsp;&lt;br&gt;анализатор" style="shape=umlActor;verticalLabelPosition=bottom;verticalAlign=top;html=1;outlineConnect=0;" vertex="1" parent="1">
          <mxGeometry x="340" y="420" width="30" height="60" as="geometry" />
        </mxCell>
        <mxCell id="c8oS9XmQz75VFOZxUdVw-30" value="&amp;lt;extend&amp;gt;" style="text;html=1;align=center;verticalAlign=middle;resizable=0;points=[];autosize=1;strokeColor=none;fillColor=none;" vertex="1" parent="1">
          <mxGeometry x="360" y="190" width="70" height="30" as="geometry" />
        </mxCell>
        <mxCell id="c8oS9XmQz75VFOZxUdVw-31" value="Создние таблицы&amp;nbsp;&lt;br&gt;имен" style="ellipse;whiteSpace=wrap;html=1;" vertex="1" parent="1">
          <mxGeometry x="420" y="350" width="100" height="50" as="geometry" />
        </mxCell>
        <mxCell id="c8oS9XmQz75VFOZxUdVw-34" value="" style="endArrow=classic;html=1;rounded=0;entryX=0;entryY=1;entryDx=0;entryDy=0;" edge="1" parent="1" target="c8oS9XmQz75VFOZxUdVw-31">
          <mxGeometry width="50" height="50" relative="1" as="geometry">
            <mxPoint x="390" y="460" as="sourcePoint" />
            <mxPoint x="441" y="390" as="targetPoint" />
          </mxGeometry>
        </mxCell>
        <mxCell id="c8oS9XmQz75VFOZxUdVw-36" value="Сравнение с таблицей&amp;nbsp;&lt;br&gt;имен" style="ellipse;whiteSpace=wrap;html=1;" vertex="1" parent="1">
          <mxGeometry x="570" y="280" width="100" height="50" as="geometry" />
        </mxCell>
        <mxCell id="c8oS9XmQz75VFOZxUdVw-37" value="" style="endArrow=classic;html=1;rounded=0;dashed=1;" edge="1" parent="1" target="c8oS9XmQz75VFOZxUdVw-36">
          <mxGeometry width="50" height="50" relative="1" as="geometry">
            <mxPoint x="525" y="367" as="sourcePoint" />
            <mxPoint x="570" y="300" as="targetPoint" />
          </mxGeometry>
        </mxCell>
        <mxCell id="c8oS9XmQz75VFOZxUdVw-38" value="&amp;lt;include&amp;gt;" style="text;html=1;align=center;verticalAlign=middle;resizable=0;points=[];autosize=1;strokeColor=none;fillColor=none;" vertex="1" parent="1">
          <mxGeometry x="540" y="345" width="80" height="30" as="geometry" />
        </mxCell>
        <mxCell id="c8oS9XmQz75VFOZxUdVw-39" value="" style="endArrow=classic;html=1;rounded=0;exitX=1;exitY=0.5;exitDx=0;exitDy=0;entryX=0;entryY=0.5;entryDx=0;entryDy=0;dashed=1;" edge="1" parent="1" source="c8oS9XmQz75VFOZxUdVw-22" target="c8oS9XmQz75VFOZxUdVw-36">
          <mxGeometry width="50" height="50" relative="1" as="geometry">
            <mxPoint x="390" y="430" as="sourcePoint" />
            <mxPoint x="440" y="380" as="targetPoint" />
          </mxGeometry>
        </mxCell>
        <mxCell id="c8oS9XmQz75VFOZxUdVw-41" value="&amp;lt;include&amp;gt;" style="text;html=1;align=center;verticalAlign=middle;resizable=0;points=[];autosize=1;strokeColor=none;fillColor=none;" vertex="1" parent="1">
          <mxGeometry x="450" y="270" width="80" height="30" as="geometry" />
        </mxCell>
        <mxCell id="c8oS9XmQz75VFOZxUdVw-42" value="" style="endArrow=classic;html=1;rounded=0;exitX=0.75;exitY=1.044;exitDx=0;exitDy=0;exitPerimeter=0;entryX=0.2;entryY=0;entryDx=0;entryDy=0;dashed=1;entryPerimeter=0;" edge="1" parent="1" target="c8oS9XmQz75VFOZxUdVw-36">
          <mxGeometry width="50" height="50" relative="1" as="geometry">
            <mxPoint x="380" y="155" as="sourcePoint" />
            <mxPoint x="395" y="248" as="targetPoint" />
          </mxGeometry>
        </mxCell>
        <mxCell id="c8oS9XmQz75VFOZxUdVw-43" value="&amp;lt;extend&amp;gt;" style="text;html=1;align=center;verticalAlign=middle;resizable=0;points=[];autosize=1;strokeColor=none;fillColor=none;" vertex="1" parent="1">
          <mxGeometry x="430" y="170" width="70" height="30" as="geometry" />
        </mxCell>
        <mxCell id="c8oS9XmQz75VFOZxUdVw-44" value="Генератор &lt;br&gt;промежуточного&lt;br&gt;кода" style="shape=umlActor;verticalLabelPosition=bottom;verticalAlign=top;html=1;outlineConnect=0;" vertex="1" parent="1">
          <mxGeometry x="590" y="20" width="30" height="60" as="geometry" />
        </mxCell>
        <mxCell id="c8oS9XmQz75VFOZxUdVw-45" value="Генерация промежуточного&lt;br&gt;кода" style="ellipse;whiteSpace=wrap;html=1;" vertex="1" parent="1">
          <mxGeometry x="620" y="150" width="100" height="50" as="geometry" />
        </mxCell>
        <mxCell id="c8oS9XmQz75VFOZxUdVw-47" value="" style="endArrow=classic;html=1;rounded=0;entryX=-0.026;entryY=0.684;entryDx=0;entryDy=0;entryPerimeter=0;dashed=1;" edge="1" parent="1" target="c8oS9XmQz75VFOZxUdVw-45">
          <mxGeometry width="50" height="50" relative="1" as="geometry">
            <mxPoint x="400" y="270" as="sourcePoint" />
            <mxPoint x="471" y="230" as="targetPoint" />
          </mxGeometry>
        </mxCell>
        <mxCell id="c8oS9XmQz75VFOZxUdVw-49" value="&amp;lt;include&amp;gt;" style="text;html=1;align=center;verticalAlign=middle;resizable=0;points=[];autosize=1;strokeColor=none;fillColor=none;" vertex="1" parent="1">
          <mxGeometry x="520" y="210" width="80" height="30" as="geometry" />
        </mxCell>
        <mxCell id="c8oS9XmQz75VFOZxUdVw-50" value="" style="endArrow=classic;html=1;rounded=0;entryX=0.232;entryY=0.012;entryDx=0;entryDy=0;entryPerimeter=0;" edge="1" parent="1" target="c8oS9XmQz75VFOZxUdVw-45">
          <mxGeometry width="50" height="50" relative="1" as="geometry">
            <mxPoint x="620" y="110" as="sourcePoint" />
            <mxPoint x="770" y="190" as="targetPoint" />
          </mxGeometry>
        </mxCell>
        <mxCell id="c8oS9XmQz75VFOZxUdVw-51" value="Генератор &lt;br&gt;исполняемого&lt;br&gt;файла" style="shape=umlActor;verticalLabelPosition=bottom;verticalAlign=top;html=1;outlineConnect=0;" vertex="1" parent="1">
          <mxGeometry x="670" y="460" width="30" height="60" as="geometry" />
        </mxCell>
        <mxCell id="c8oS9XmQz75VFOZxUdVw-53" value="Перевод в 16&amp;nbsp;&lt;br&gt;команды" style="ellipse;whiteSpace=wrap;html=1;" vertex="1" parent="1">
          <mxGeometry x="680" y="340" width="100" height="50" as="geometry" />
        </mxCell>
        <mxCell id="c8oS9XmQz75VFOZxUdVw-55" value="" style="endArrow=classic;html=1;rounded=0;entryX=0.438;entryY=0.004;entryDx=0;entryDy=0;entryPerimeter=0;dashed=1;" edge="1" parent="1" target="c8oS9XmQz75VFOZxUdVw-53">
          <mxGeometry width="50" height="50" relative="1" as="geometry">
            <mxPoint x="690" y="196" as="sourcePoint" />
            <mxPoint x="755" y="154" as="targetPoint" />
          </mxGeometry>
        </mxCell>
        <mxCell id="c8oS9XmQz75VFOZxUdVw-56" value="&amp;lt;include&amp;gt;" style="text;html=1;align=center;verticalAlign=middle;resizable=0;points=[];autosize=1;strokeColor=none;fillColor=none;" vertex="1" parent="1">
          <mxGeometry x="700" y="240" width="80" height="30" as="geometry" />
        </mxCell>
        <mxCell id="c8oS9XmQz75VFOZxUdVw-57" value="" style="endArrow=classic;html=1;rounded=0;" edge="1" parent="1">
          <mxGeometry width="50" height="50" relative="1" as="geometry">
            <mxPoint x="710" y="500" as="sourcePoint" />
            <mxPoint x="740" y="400" as="targetPoint" />
          </mxGeometry>
        </mxCell>
        <mxCell id="c8oS9XmQz75VFOZxUdVw-58" value="Анализатор &lt;br&gt;исключений" style="shape=umlActor;verticalLabelPosition=bottom;verticalAlign=top;html=1;outlineConnect=0;" vertex="1" parent="1">
          <mxGeometry x="230" y="40" width="30" height="60" as="geometry" />
        </mxCell>
        <mxCell id="c8oS9XmQz75VFOZxUdVw-59" value="" style="endArrow=classic;html=1;rounded=0;entryX=0.5;entryY=0;entryDx=0;entryDy=0;" edge="1" parent="1" target="c8oS9XmQz75VFOZxUdVw-16">
          <mxGeometry width="50" height="50" relative="1" as="geometry">
            <mxPoint x="280" y="90" as="sourcePoint" />
            <mxPoint x="653" y="161" as="targetPoint" />
          </mxGeometry>
        </mxCell>
        <mxCell id="c8oS9XmQz75VFOZxUdVw-61" value="компилятор" style="shape=umlActor;verticalLabelPosition=bottom;verticalAlign=top;html=1;outlineConnect=0;" vertex="1" parent="1">
          <mxGeometry x="-100" y="255" width="30" height="60" as="geometry" />
        </mxCell>
        <mxCell id="c8oS9XmQz75VFOZxUdVw-62" value="" style="endArrow=classic;html=1;rounded=0;" edge="1" parent="1">
          <mxGeometry width="50" height="50" relative="1" as="geometry">
            <mxPoint x="-60" y="290" as="sourcePoint" />
            <mxPoint x="27" y="290" as="targetPoint" />
          </mxGeometry>
        </mxCell>
      </root>
    </mxGraphModel>
  </diagram>
</mxfile>
